<?xml version="1.0" encoding="UTF-8" standalone="no"?>
<!-- Created with Inkscape (http://www.inkscape.org/) -->

<svg
   xmlns:osb="http://www.openswatchbook.org/uri/2009/osb"
   xmlns:dc="http://purl.org/dc/elements/1.1/"
   xmlns:cc="http://creativecommons.org/ns#"
   xmlns:rdf="http://www.w3.org/1999/02/22-rdf-syntax-ns#"
   xmlns:svg="http://www.w3.org/2000/svg"
   xmlns="http://www.w3.org/2000/svg"
   xmlns:sodipodi="http://sodipodi.sourceforge.net/DTD/sodipodi-0.dtd"
   xmlns:inkscape="http://www.inkscape.org/namespaces/inkscape"
   width="744.09003"
   height="750"
   id="svg2"
   version="1.1"
   inkscape:version="0.48.2 r9819"
   sodipodi:docname="eve.svg"
   inkscape:export-filename="/Users/elhombretecla/Desktop/eve-bg.png"
   inkscape:export-xdpi="90"
   inkscape:export-ydpi="90">
  <defs
     id="defs4">
    <linearGradient
       id="linearGradient3759"
       osb:paint="solid">
      <stop
         style="stop-color:#d5f6ff;stop-opacity:1;"
         offset="0"
         id="stop3761" />
    </linearGradient>
  </defs>
  <sodipodi:namedview
     id="base"
     pagecolor="#ffffff"
     bordercolor="#666666"
     borderopacity="1.0"
     inkscape:pageopacity="0.0"
     inkscape:pageshadow="2"
     inkscape:zoom="0.70710678"
     inkscape:cx="126.57226"
     inkscape:cy="454.31849"
     inkscape:document-units="px"
     inkscape:current-layer="layer3"
     showgrid="false"
     inkscape:snap-nodes="true"
     inkscape:object-nodes="false"
     inkscape:window-width="1676"
     inkscape:window-height="1006"
     inkscape:window-x="4"
     inkscape:window-y="0"
     inkscape:window-maximized="1"
     showguides="true"
     inkscape:guide-bbox="true">
    <sodipodi:guide
       orientation="0,1"
       position="543,809"
       id="guide4004" />
  </sodipodi:namedview>
  <metadata
     id="metadata7">
    <rdf:RDF>
      <cc:Work
         rdf:about="">
        <dc:format>image/svg+xml</dc:format>
        <dc:type
           rdf:resource="http://purl.org/dc/dcmitype/StillImage" />
        <dc:title />
      </cc:Work>
    </rdf:RDF>
  </metadata>
  <g
     inkscape:groupmode="layer"
     id="layer6"
     inkscape:label="bg"
     transform="translate(0,-302.36218)">
    <path
       sodipodi:type="arc"
       style="fill:#216778;fill-opacity:1;stroke:none"
       id="path3920"
       sodipodi:cx="398.80823"
       sodipodi:cy="527.68896"
       sodipodi:rx="388.90872"
       sodipodi:ry="388.90872"
       d="m 787.71695,527.68896 c 0,214.78836 -174.12037,388.90873 -388.90872,388.90873 -214.78836,0 -388.9087244,-174.12037 -388.9087244,-388.90873 0,-214.78835 174.1203644,-388.90872 388.9087244,-388.90872 209.81849,0 381.81134,166.43649 388.69911,376.1419"
       sodipodi:start="0"
       sodipodi:end="6.2503521"
       sodipodi:open="true"
       transform="matrix(0.92727273,0,0,0.92727273,2.7199641,190.09311)" />
  </g>
  <g
     inkscape:groupmode="layer"
     id="layer4"
     inkscape:label="arm2"
     transform="translate(0,-302.36218)">
    <path
       sodipodi:type="arc"
       style="fill:#37abc8;fill-opacity:1;stroke:none"
       id="path3857"
       sodipodi:cx="134"
       sodipodi:cy="497.36218"
       sodipodi:rx="12"
       sodipodi:ry="12"
       d="m 146,497.36218 c 0,6.62742 -5.37258,12 -12,12 -6.62742,0 -12,-5.37258 -12,-12 0,-6.62741 5.37258,-12 12,-12 6.47407,0 11.78101,5.1355 11.99353,11.60607"
       sodipodi:start="0"
       sodipodi:end="6.2503521"
       sodipodi:open="true"
       transform="matrix(1.0599581,0,0,1.0599581,-52.810523,215.57286)" />
    <path
       sodipodi:type="arc"
       style="fill:#2c89a0;fill-opacity:1;stroke:none"
       id="path3859"
       sodipodi:cx="136.5"
       sodipodi:cy="547.36218"
       sodipodi:rx="15.5"
       sodipodi:ry="15"
       d="m 152,547.36218 c 0,8.28427 -6.93959,15 -15.5,15 -8.56041,0 -15.5,-6.71573 -15.5,-15 0,-8.28427 6.93959,-15 15.5,-15 8.36234,0 15.21713,6.41937 15.49165,14.50759"
       sodipodi:start="0"
       sodipodi:end="6.2503521"
       sodipodi:open="true"
       transform="matrix(1.0599581,0,0,1.0599581,-54.93044,213.45294)" />
    <path
       sodipodi:type="arc"
       style="fill:#2c89a0;fill-opacity:1;stroke:none"
       id="path3861"
       sodipodi:cx="166"
       sodipodi:cy="574.86218"
       sodipodi:rx="9"
       sodipodi:ry="8.5"
       d="m 175,574.86218 c 0,4.69442 -4.02944,8.5 -9,8.5 -4.97056,0 -9,-3.80558 -9,-8.5 0,-4.69442 4.02944,-8.5 9,-8.5 4.85555,0 8.83575,3.63764 8.99515,8.22097"
       sodipodi:start="0"
       sodipodi:end="6.2503521"
       sodipodi:open="true"
       transform="matrix(1.0599581,0,0,1.0599581,-54.93044,213.45294)" />
    <path
       sodipodi:type="arc"
       style="fill:#87cdde;fill-opacity:1;stroke:none"
       id="path3855"
       sodipodi:cx="189"
       sodipodi:cy="520.36218"
       sodipodi:rx="55"
       sodipodi:ry="53"
       d="m 244,520.36218 c 0,29.27109 -24.62434,53 -55,53 -30.37566,0 -55,-23.72891 -55,-53 0,-29.27109 24.62434,-53 55,-53 29.67282,0 53.99628,22.68176 54.97036,51.26016"
       sodipodi:start="0"
       sodipodi:end="6.2503521"
       sodipodi:open="true"
       transform="matrix(1.0599581,0,0,1.0599581,-59.170272,217.69277)" />
    <path
       style="opacity:0.35856575;fill:#37abc8;fill-opacity:1;stroke:none"
       d="m 150.20502,725.04158 c -45.82146,9.51795 -45.26603,49.46151 -42.48882,62.23401 2.7772,12.7725 14.2019,28.39725 29.75423,31.88066 15.55232,3.48341 23.41525,0.0386 31.74685,-1.70316 8.3316,-1.7417 26.66113,-12.34369 28.88289,-26.8579 2.22175,-14.5142 3.88808,-44.12318 -7.22072,-53.99284 -11.10881,-9.86966 -40.67443,-11.56077 -40.67443,-11.56077 z"
       id="path3892"
       inkscape:connector-curvature="0"
       sodipodi:nodetypes="csssssc" />
  </g>
  <g
     inkscape:label="body"
     inkscape:groupmode="layer"
     id="layer1"
     transform="translate(0,-302.36218)">
    <path
       style="fill:#afdde9;fill-opacity:1;stroke:none"
       d="m 527.38149,790.45783 c -17.28478,99.33733 -69.02954,160.04989 -183.76768,160.04989 -114.73815,0 -176.74739,-98.13615 -187.51519,-169.04394 -14.21325,-93.59662 -15.20645,-120.67585 19.52648,-156.81582 34.73293,-36.13994 86.83945,-53.76771 153.74814,-53.23774 64.25679,0.50897 148.37976,10.7638 179.73468,48.39145 31.35491,37.62766 33.60902,82.52176 18.27357,170.65616 z"
       id="path3753"
       inkscape:connector-curvature="0"
       sodipodi:nodetypes="sssssss" />
    <path
       style="opacity:0.15139441;fill:#37abc8;fill-opacity:1;stroke:none"
       d="m 457.5593,664.31903 c 18.01929,11.65953 0.93628,28.51156 -9.53961,32.8587 -77.90693,32.32872 -158.99372,29.14885 -193.97234,65.7174 -34.97862,36.56856 -24.90902,94.33628 -2.64989,113.9455 22.25911,19.60922 66.24737,45.04821 113.41551,42.39832 47.16814,-2.6499 87.97652,-18.54927 91.1564,-13.24948 3.17987,5.29979 4.0219,11.80909 -13.77946,22.25913 -28.32496,16.62775 -75.34244,24.28258 -114.47547,21.72913 -34.63492,-2.25995 -81.75938,-19.31453 -113.41552,-53.52788 -32.39579,-35.01275 -52.47374,-71.11509 -60.94759,-135.14465 -9.02984,-68.23058 -6.02381,-84.98067 -3.49033,-93.49584 3.02464,-10.16606 7.20018,-19.91969 12.49997,-27.86937 5.29979,-7.94969 12.18952,-11.65954 20.13921,-12.71949 7.94968,-1.05996 115.00545,-11.65954 162.70357,3.17987 47.69811,14.83941 58.82767,19.60923 78.96687,21.72914 20.1392,2.11992 33.38868,12.18952 33.38868,12.18952 z"
       id="path3888"
       inkscape:connector-curvature="0"
       sodipodi:nodetypes="cssssssssssssssc" />
    <path
       style="fill:#216778;fill-opacity:1;stroke:none"
       d="m 511.13844,645.1526 c 0.70463,25.86162 -60.31362,52.8861 -151.18773,55.84312 -129.07047,4.19991 -188.95119,-25.88026 -192.66129,-45.29788 -4.85535,-25.41152 34.56016,-41.79501 166.20139,-54.68717 61.67159,-6.03977 95.01507,-2.32796 122.13909,3.19874 27.124,5.5267 53.46195,19.65576 55.4719,40.48276"
       id="path3840"
       inkscape:connector-curvature="0"
       sodipodi:nodetypes="cssssc" />
    <path
       style="opacity:0.14741037;fill:#37abc8;fill-opacity:1;stroke:none"
       d="m 510.57,682.09118 c -23.60937,-4.87176 -33.35291,8.99405 -36.72568,22.85987 -3.37277,13.86581 -7.49503,39.72369 9.3688,58.08652 16.86382,18.36284 28.48114,19.11235 35.60142,16.86382 7.12028,-2.2485 13.49106,-14.24055 11.99205,-31.10439 -1.499,-16.86382 6.37078,-28.48113 -20.23659,-66.70582 z"
       id="path3896"
       inkscape:connector-curvature="0" />
  </g>
  <g
     inkscape:groupmode="layer"
     id="layer2"
     inkscape:label="head"
     style="display:inline"
     transform="translate(0,-302.36218)">
    <path
       style="fill:#d5f6ff;fill-opacity:1;stroke:none"
       d="m 318.62727,415.55624 c -168.67013,24.59731 -179.16698,141.79689 -174.3149,173.51354 6.68435,43.69365 29.80526,52.39709 50.4193,61.96066 31.59287,14.65704 84.14527,32.86275 160.07376,23.88127 75.92848,-8.98148 111.54982,-31.90423 146.39795,-62.73829 34.84813,-30.83403 30.32991,-52.08383 26.94282,-80.71786 C 524.75913,502.82154 477.8053,403.6956 318.62727,415.55624 z"
       id="path3757"
       inkscape:connector-curvature="0"
       sodipodi:nodetypes="csssssc" />
    <path
       style="fill:#2c89a0;fill-opacity:1;stroke:none;display:inline"
       d="m 393.58325,502.75111 c -59.9578,9.13934 -61.56034,56.6161 -59.51441,70.60271 2.81847,19.26829 13.57878,27.4793 21.03101,31.88638 11.42124,6.75423 26.95332,15.04356 53.9646,11.84842 27.01129,-3.19513 35.82521,-9.43807 47.64415,-23.11101 9.49954,-10.98967 12.49819,-28.56107 11.0057,-41.17845 -1.4925,-12.61738 -17.435,-53.68401 -74.13105,-50.04805 z"
       id="path3757-0-6"
       inkscape:connector-curvature="0"
       sodipodi:nodetypes="csssssc" />
    <path
       style="fill:#2ad4ff;fill-opacity:1;stroke:none;display:inline"
       d="m 408.8593,516.2784 c -30.22384,4.75297 -30.64036,32.01056 -29.49059,40.06147 1.58395,11.09116 7.08967,15.89674 10.89215,18.48992 5.82766,3.97429 13.74543,8.86439 27.36905,7.25287 13.62363,-1.61152 18.02599,-5.12449 23.88539,-12.88036 4.70952,-6.23383 6.07931,-16.30206 5.22056,-23.56191 -0.85876,-7.25984 -9.25548,-30.9808 -37.87656,-29.36199 z"
       id="path3757-0-9-7"
       inkscape:connector-curvature="0"
       sodipodi:nodetypes="csssssc" />
    <path
       style="opacity:0.07569724;fill:#93a7ac;fill-opacity:1;stroke:none"
       d="m 253.86502,433.25601 c 46.28185,0.56213 39.72371,34.47716 24.73363,51.71574 -14.99008,17.23858 -57.71177,42.34695 -61.45929,76.07462 -3.74752,33.72765 4.12227,55.46325 54.33901,74.20084 50.21674,18.73759 103.80624,18.36284 123.29333,16.86384 19.4871,-1.499 29.23064,-1.499 27.73163,2.99802 -1.499,4.49701 -20.23659,11.24255 -20.23659,11.24255 0,0 -44.22071,9.74354 -69.70383,10.49304 -25.48312,0.74951 -78.69789,-1.49901 -103.4315,-11.99206 -24.73362,-10.49305 -51.71575,-17.98808 -68.95432,-36.72567 -17.23859,-18.73759 -18.80086,-52.24231 -13.49106,-80.38426 5.62126,-29.79276 23.2346,-61.27191 44.9702,-78.5105 21.73561,-17.23858 44.22071,-32.22864 62.20879,-35.97616 z"
       id="path3890"
       inkscape:connector-curvature="0"
       sodipodi:nodetypes="cssssscsssssc" />
    <path
       style="fill:#2c89a0;fill-opacity:1;stroke:none;display:inline"
       d="m 253.89016,540.81155 c -47.1592,7.27717 -48.18184,46.64061 -46.50064,58.24972 2.31604,15.993 10.82904,22.85641 16.71843,26.54864 9.02604,5.65866 21.29627,12.61105 42.54639,10.09739 21.2501,-2.51365 28.15792,-7.64642 37.39422,-18.92559 7.42371,-9.06569 9.6961,-23.62219 8.4575,-34.09303 -1.23857,-10.47088 -13.99701,-44.60687 -58.6159,-41.87713 z"
       id="path3757-0"
       inkscape:connector-curvature="0"
       sodipodi:nodetypes="csssssc" />
    <path
       style="fill:#2ad4ff;fill-opacity:1;stroke:none;display:inline"
       d="m 265.91237,556.20018 c -25.52967,3.96632 -26.01135,25.88699 -25.07945,32.35548 1.28379,8.91116 5.90731,12.7492 9.10396,14.81627 4.89919,3.16803 11.55793,7.0625 23.06309,5.70157 11.50517,-1.36094 15.23726,-4.20683 20.21926,-10.47157 4.0043,-5.03528 5.2084,-13.13801 4.51833,-18.97175 -0.69008,-5.83377 -7.66309,-24.86841 -31.82519,-23.43 z"
       id="path3757-0-9"
       inkscape:connector-curvature="0"
       sodipodi:nodetypes="csssssc" />
  </g>
  <g
     inkscape:groupmode="layer"
     id="layer3"
     inkscape:label="arm1"
     transform="translate(0,-302.36218)">
    <path
       sodipodi:type="arc"
       style="fill:#d5f6ff;fill-opacity:1;stroke:none"
       id="path3844"
       sodipodi:cx="587.5"
       sodipodi:cy="498.36218"
       sodipodi:rx="61.5"
       sodipodi:ry="61"
       d="m 649,498.36218 c 0,33.68937 -27.53449,61 -61.5,61 -33.96551,0 -61.5,-27.31063 -61.5,-61 0,-33.68937 27.53449,-61 61.5,-61 33.1796,0 60.37766,26.10542 61.46685,58.99754"
       sodipodi:start="0"
       sodipodi:end="6.2503521"
       sodipodi:open="true"
       transform="matrix(1.0389285,0.21009207,-0.21009207,1.0389285,53.006016,66.62648)" />
    <path
       sodipodi:type="arc"
       style="fill:#afdde9;fill-opacity:1;stroke:none"
       id="path3846"
       sodipodi:cx="636"
       sodipodi:cy="446.86218"
       sodipodi:rx="22"
       sodipodi:ry="20.5"
       d="m 658,446.86218 c 0,11.32184 -9.84974,20.5 -22,20.5 -12.15026,0 -22,-9.17816 -22,-20.5 0,-11.32183 9.84974,-20.5 22,-20.5 11.86913,0 21.59851,8.77314 21.98814,19.82704"
       sodipodi:start="0"
       sodipodi:end="6.2503521"
       sodipodi:open="true"
       transform="matrix(0.89725645,0.18144315,-0.21009207,1.0389285,139.31627,108.95263)" />
    <path
       sodipodi:type="arc"
       style="fill:#afdde9;fill-opacity:1;stroke:none"
       id="path3848"
       sodipodi:cx="587.5"
       sodipodi:cy="412.36218"
       sodipodi:rx="13.5"
       sodipodi:ry="13"
       d="m 601,412.36218 c 0,7.1797 -6.04416,13 -13.5,13 -7.45584,0 -13.5,-5.8203 -13.5,-13 0,-7.1797 6.04416,-13 13.5,-13 7.28333,0 13.25363,5.56345 13.49272,12.57325"
       sodipodi:start="0"
       sodipodi:end="6.2503521"
       sodipodi:open="true"
       transform="matrix(1.0389285,0.21009207,-0.21009207,1.0389285,54.804591,100.51399)" />
    <path
       sodipodi:type="arc"
       style="fill:#afdde9;fill-opacity:1;stroke:none"
       id="path3850"
       sodipodi:cx="638.5"
       sodipodi:cy="489.86218"
       sodipodi:rx="11.5"
       sodipodi:ry="11.5"
       d="m 650,489.86218 c 0,6.35128 -5.14873,11.5 -11.5,11.5 -6.35127,0 -11.5,-5.14872 -11.5,-11.5 0,-6.35127 5.14873,-11.5 11.5,-11.5 6.20432,0 11.29013,4.92152 11.4938,11.12249"
       sodipodi:start="0"
       sodipodi:end="6.2503521"
       sodipodi:open="true"
       transform="matrix(1.0389285,0.21009207,-0.21009207,1.0389285,54.804591,100.51399)" />
  </g>
</svg>
